HIERARCHY
ROOT pelvis
{
  OFFSET 0 100 0
  CHANNELS 6 Xposition Yposition Zposition Zrotation Xrotation Yrotation
  JOINT pelvis_right_femur
  {
    OFFSET -10.78128 -3.44521 -0.5502486
    CHANNELS 3 Zrotation Xrotation Yrotation
    JOINT right_femur_tibia
    {
      OFFSET -0.8047443 -44.0398 -0.1307829
      CHANNELS 3 Zrotation Xrotation Yrotation
      JOINT right_tibia_foot
      {
        OFFSET 3.006224 -47.83518 -5
        CHANNELS 3 Zrotation Xrotation Yrotation
        End Site
        {
          OFFSET 0 -5 15
        }
      }
    }
  }
  JOINT pelvis_left_femur
  {
    OFFSET 10.78128 -3.44521 -0.5502486
    CHANNELS 3 Zrotation Xrotation Yrotation
    JOINT left_femur_tibia
    {
      OFFSET 0.8047443 -44.0398 -0.1307829
      CHANNELS 3 Zrotation Xrotation Yrotation
      JOINT left_tibia_foot
      {
        OFFSET -4.370144 -48.10324 -4.275266
        CHANNELS 3 Zrotation Xrotation Yrotation
        End Site
        {
          OFFSET 0 -5 15
        }
      }
    }
  }
  JOINT pelvis_spine1
  {
    OFFSET 0 6.468898 -3.129235
    CHANNELS 3 Zrotation Xrotation Yrotation
    JOINT spine1
    {
      OFFSET 0 23.15396 4.99043
      CHANNELS 3 Zrotation Xrotation Yrotation
      JOINT spine2
      {
        OFFSET 0 20.79997 -5.064912
        CHANNELS 3 Zrotation Xrotation Yrotation
        JOINT neck
        {
          OFFSET 0 14.38658 9.616178
          CHANNELS 3 Zrotation Xrotation Yrotation
          End Site
          {
            OFFSET 0 20 0
          }
        }
      }
      JOINT right_manubrium
      {
        OFFSET -5.722621 16.35077 3.967754
        CHANNELS 3 Zrotation Xrotation Yrotation
        JOINT right_clavicle
        {
          OFFSET -13.16364 1.694482 -4.693211
          CHANNELS 3 Zrotation Xrotation Yrotation
          JOINT right_humerus
          {
            OFFSET -28.5034 -0.3100689 -2.792744
            CHANNELS 3 Zrotation Xrotation Yrotation
            JOINT right_radius
            {
              OFFSET -25.15693 0.02248979 -1.271978
              CHANNELS 3 Zrotation Xrotation Yrotation
              End Site
              {
                OFFSET -15 0 0
              }
            }
          }
        }
      }
      JOINT left_manubrium
      {
        OFFSET 5.722621 16.35077 3.967754
        CHANNELS 3 Zrotation Xrotation Yrotation
        JOINT left_clavicle
        {
          OFFSET 13.16364 1.694482 -4.693211
          CHANNELS 3 Zrotation Xrotation Yrotation
          JOINT left_humerus
          {
            OFFSET 29.39168 -1.063119 -2.237045
            CHANNELS 3 Zrotation Xrotation Yrotation
            JOINT left_radius
            {
              OFFSET 24.59957 -0.9528479 0.9047498
              CHANNELS 3 Zrotation Xrotation Yrotation
              End Site
              {
                OFFSET 15 -0 -0
              }
            }
          }
        }
      }
    }
  }
}
MOTION
Frames: 13
Frame Time: 0.0416666666667
1546.897 107.8489 2548.176 6.353854 -2.557951 55.65511 0.1706524 12.13957 4.011875 -0 40.66975 -0 2.601999 -4.67976 -3.457146 -3.028913 -17.47513 -6.911476 -0 21.44681 -0 -5.709059 -9.629852 18.16624 -2.260955 0.5232384 7.097545 -1.425467 9.198521 -2.951372 2.224273 22.39858 6.160888 2.221268 -17.22271 8.168011 2.115094 -19.4447 10.51825 81.46423 26.06203 -5.857103 -0 0 21.01758 -26.64153 12.48218 14.95898 3.740389 -14.45194 -2.701504 -91.73027 23.20373 23.2815 0 0 -8.525146 -1.241179 6.542056 15.80314
1552.933 108.6824 2550.924 7.006757 -2.673718 56.48915 -0.2257035 8.32006 4.104265 -0 47.00294 -0 2.875596 -2.165746 -4.654303 -4.065131 -13.00511 -7.51072 -0 22.39847 -0 -5.433791 -10.46515 17.27195 -2.525709 0.424077 6.52302 -1.384864 9.697306 -3.555513 2.120872 22.38644 6.323428 2.175501 -16.99317 8.252392 2.510915 -18.85976 10.60439 82.912 26.15667 -8.002419 -0 0 19.72158 -26.60746 13.10159 14.63226 3.435046 -15.08522 -3.393005 -90.64746 23.74766 22.0376 0 0 -9.878251 -1.687858 6.453035 16.5538
1558.71 109.6796 2553.509 7.519019 -2.67501 57.51682 -0.4467972 3.391985 4.042611 -0 50.25635 -0 3.150181 -0.6785416 -5.939862 -4.846292 -8.021471 -7.890035 -0 22.25275 -0 -5.142751 -11.77467 16.34975 -2.785706 0.3633251 5.881453 -1.18566 10.10966 -4.341399 1.994348 22.34783 6.435757 2.079295 -16.7319 8.286642 2.815537 -18.26316 10.67583 84.44687 26.2654 -10.52499 -0 0 18.29183 -26.3522 13.79419 14.18885 3.316575 -16.03523 -4.105781 -89.20804 24.41496 20.14054 0 0 -12.23725 -2.17706 6.425018 17.24853
1564.249 110.5545 2555.985 7.770249 -2.552341 58.64013 -0.4932819 -2.167197 3.711886 -0 49.73468 -0 3.327214 -0.230586 -7.086147 -5.306025 -2.962303 -8.020537 -0 20.74977 -0 -4.913283 -13.48223 15.48259 -2.988782 0.3515267 5.199102 -0.8677029 10.30779 -5.177466 1.892925 22.30518 6.483457 1.952697 -16.45856 8.299007 2.898211 -17.64215 10.66661 85.91979 26.25994 -13.05939 -0 0 16.7988 -25.94104 14.37635 13.66263 3.484963 -17.17436 -4.707812 -87.47046 24.92527 17.55472 0 0 -15.28358 -2.42466 6.514488 17.47169
1569.642 111.0796 2558.442 7.769475 -2.358773 59.77519 -0.4175473 -7.844406 3.110053 -0 45.98118 -0 3.343942 -0.5247374 -7.983262 -5.487456 1.875679 -7.938601 -0 18.37106 -0 -4.801305 -15.36962 14.69965 -3.099924 0.386687 4.502438 -0.4959906 10.26974 -5.951371 1.851769 22.28673 6.461788 1.815265 -16.17388 8.312102 2.722505 -16.96864 10.55686 87.25839 26.05668 -15.35822 -0 0 15.26247 -25.44667 14.74901 13.07147 3.931433 -18.36916 -5.137339 -85.56951 25.06366 14.41633 0 0 -18.59413 -2.254335 6.747157 17.00144
1574.991 111.1415 2560.958 7.595403 -2.162061 60.8622 -0.2737444 -13.2281 2.347615 -0 40.23742 -0 3.186632 -1.227632 -8.645243 -5.480267 6.346403 -7.736834 -0 15.88544 -0 -4.841199 -17.18425 13.9931 -3.111676 0.4571835 3.815009 -0.1208474 10.0454 -6.605901 1.880061 22.30955 6.376271 1.680087 -15.88141 8.334812 2.358954 -16.22896 10.36966 88.43557 25.68295 -17.32319 -0 0 13.70091 -24.88724 14.91579 12.42324 4.555827 -19.50292 -5.392871 -83.70431 24.82202 11.02424 0 0 -21.78389 -1.694198 7.101134 15.93219
1580.37 110.736 2563.591 7.322838 -2.011856 61.85859 -0.07792198 -18.04114 1.57824 -0 33.73346 -0 2.856206 -2.114737 -9.135933 -5.358602 10.39253 -7.528805 -0 13.96109 -0 -5.057169 -18.71904 13.34649 -3.032248 0.5495325 3.153243 0.234294 9.69527 -7.125693 1.970472 22.37941 6.237835 1.556315 -15.59819 8.366844 1.924786 -15.4238 10.14171 89.43951 25.24614 -18.94689 -0 0 12.13901 -24.22539 14.92562 11.71971 5.234019 -20.48303 -5.494872 -82.05877 24.35631 7.701822 0 0 -24.56746 -0.8942026 7.537934 14.53178
1585.823 109.9442 2566.376 6.99584 -1.93722 62.73062 0.1979147 -22.07209 0.9523925 -0 27.40748 -0 2.343054 -3.061074 -9.509355 -5.159491 13.96339 -7.421148 -0 13.10049 -0 -5.471825 -19.81077 12.75195 -2.870404 0.6525923 2.53018 0.5625375 9.262533 -7.507903 2.111685 22.49717 6.058154 1.453483 -15.35354 8.404479 1.533241 -14.56086 9.904352 90.25539 24.87867 -20.2421 -0 0 10.60468 -23.39983 14.82285 10.96177 5.857068 -21.23214 -5.460165 -80.76065 23.88135 4.720675 0 0 -26.72758 -0.02384756 8.032823 13.08464
1591.371 108.915 2569.331 6.637529 -1.95547 63.44894 0.6124037 -25.08205 0.6116632 -0 21.97922 -0 1.62952 -3.991028 -9.791251 -4.890191 16.94515 -7.502727 -0 13.72971 -0 -6.104625 -20.30428 12.22079 -2.629895 0.7577874 1.965707 0.8599831 8.776868 -7.742975 2.293584 22.66239 5.847908 1.383083 -15.18375 8.442778 1.279615 -13.65699 9.681404 90.8538 24.70829 -21.19841 -0 0 9.138916 -22.35474 14.63383 10.15715 6.331631 -21.6736 -5.296213 -79.89817 23.60817 2.321479 0 0 -28.05795 0.7657796 8.577389 11.83923
1597.019 107.8546 2572.461 6.276399 -2.078512 63.98777 1.225528 -26.75566 0.6786374 -0 18.06392 -0 0.7095707 -4.846969 -9.981904 -4.547025 19.12234 -7.829074 -0 16.24534 -0 -6.953472 -20.04093 11.7967 -2.313201 0.8591433 1.496312 1.116046 8.270931 -7.808637 2.507551 22.87509 5.61539 1.356409 -15.11919 8.474734 1.23625 -12.74792 9.493689 91.18896 24.8333 -21.7661 -0 0 7.810441 -21.07036 14.37251 9.328814 6.573947 -21.73201 -5.009038 -79.54559 23.70307 0.7433789 0 0 -28.34655 1.351366 9.166497 10.99465
1602.759 107.0036 2575.753 5.982538 -2.314008 64.32633 2.04389 -26.73957 1.204787 -0 16.13818 -0 -0.385824 -5.584793 -10.06579 -4.141461 20.19151 -8.383644 -0 20.9374 -0 -7.95766 -18.90205 11.57082 -1.931905 0.9558212 1.178257 1.307725 7.800323 -7.675087 2.74575 23.13961 5.362465 1.378627 -15.15725 8.487937 1.431453 -11.89881 9.363945 91.21452 25.27193 -21.86452 -0 0 6.716032 -19.60611 14.04881 8.520255 6.522443 -21.36513 -4.621387 -79.76508 24.21855 0.189799 0 0 -27.43699 1.6667 9.783363 10.64908
1608.564 106.5865 2579.172 5.897243 -2.661467 64.45101 2.962923 -24.78853 2.09724 -0 16.32567 -0 -1.566882 -6.19671 -10.02514 -3.723354 19.84273 -9.030595 -0 27.77936 -0 -8.959746 -16.907 11.68061 -1.520347 1.056233 1.079986 1.399816 7.457968 -7.321788 2.999705 23.46848 5.079815 1.440893 -15.23019 8.46036 1.814809 -11.20925 9.320611 90.9168 25.89675 -21.42044 -0 0 5.959954 -18.14353 13.67611 7.793954 6.172932 -20.62267 -4.194986 -80.5684 25.00566 0.7172319 0 0 -25.36659 1.754557 10.39051 10.71069
1614.378 106.7356 2582.659 6.203343 -3.101405 64.35738 3.781937 -20.96898 3.118165 -0 18.13507 -0 -2.675266 -6.763384 -9.852776 -3.36884 17.88091 -9.520482 -0 36.15225 -0 -9.712588 -14.31159 12.26383 -1.142692 1.177347 1.265099 1.35662 7.359602 -6.762237 3.25524 23.87298 4.752127 1.516952 -15.20869 8.36249 2.245436 -10.80848 9.396009 90.34082 26.43105 -20.42796 -0 0 5.636151 -16.97853 13.28004 7.223916 5.612879 -19.68391 -3.833497 -81.84587 25.71034 2.12555 0 0 -22.49958 1.777319 10.92892 10.87729
